<svg width="34" height="35" viewBox="0 0 34 35" fill="none" xmlns="http://www.w3.org/2000/svg">
<path d="M18.6942 14.4689C17.9424 14.4689 17.3598 15.0733 17.3598 15.8195C17.3598 16.5657 17.9424 17.1701 18.6942 17.1701C19.381 17.1701 19.9636 16.5657 19.9636 15.8195C19.9636 15.0733 19.381 14.4689 18.6942 14.4689ZM9.58102 14.4689C8.82918 14.4689 8.24658 15.0733 8.24658 15.8195C8.24658 16.5657 8.82918 17.1701 9.58102 17.1701C10.2678 17.1701 10.8504 16.5657 10.8504 15.8195C10.8504 15.0733 10.2678 14.4689 9.58102 14.4689Z" fill="#626262"/>
<path d="M29.1392 11.9067C27.5737 9.67814 25.3865 8.18908 22.9878 7.51714V7.52052C22.4312 6.87898 21.8031 6.28808 21.1001 5.76134C15.7721 1.74324 8.29275 2.96893 4.40336 8.49634C1.26906 12.9872 1.40251 19.0278 4.59864 23.3194L4.62468 27.7967C4.62468 27.9048 4.64095 28.0128 4.6735 28.1141C4.846 28.6847 5.43185 28.9988 5.97864 28.8198L10.0991 27.4726C11.1894 27.8744 12.3156 28.104 13.4352 28.1681L13.4189 28.1816C16.3189 30.373 20.1204 31.0315 23.6062 29.8362L27.7429 31.234C27.8471 31.2678 27.9545 31.2881 28.0652 31.2881C28.6412 31.2881 29.1067 30.8052 29.1067 30.2076V25.683C31.9741 21.6446 32.0489 16.0632 29.1392 11.9067ZM10.5548 25.0752L10.1642 24.9064L6.94204 25.9531L6.90949 22.4415L6.64911 22.1376C3.89562 18.653 3.71336 13.6321 6.29109 9.94826C9.42864 5.48446 15.4434 4.49851 19.7331 7.71974C24.0358 10.9646 24.9895 17.1943 21.8812 21.6311C19.2742 25.342 14.6069 26.7128 10.5548 25.0752ZM26.9911 24.5012L26.7307 24.8389L26.7633 28.3505L23.5737 27.2362L23.1831 27.405C21.3604 28.1074 19.4174 28.1648 17.6175 27.6414L17.611 27.638C20.0162 26.8715 22.1969 25.3183 23.7689 23.083C26.2555 19.5275 26.6591 15.0604 25.214 11.2516L25.2336 11.2651C25.9821 11.8222 26.6689 12.5178 27.2515 13.3586C29.6144 16.7216 29.481 21.3002 26.9911 24.5012Z" fill="#626262"/>
<path d="M14.1569 14.4745C13.4051 14.4745 12.8225 15.0789 12.8225 15.8251C12.8225 16.5713 13.4051 17.1757 14.1569 17.1757C14.8437 17.1757 15.4263 16.5713 15.4263 15.8251C15.4263 15.0789 14.8437 14.4745 14.1569 14.4745Z" fill="#626262"/>
</svg>
