<svg width="32" height="32" viewBox="0 0 32 32" fill="none" xmlns="http://www.w3.org/2000/svg">
<path d="M19.3479 4.36773C19.5136 4.28677 19.6987 4.254 19.8822 4.27314C20.0656 4.29228 20.24 4.36258 20.3854 4.47602L29.2448 11.3666C29.359 11.4553 29.4523 11.5681 29.5179 11.697C29.5836 11.8258 29.6201 11.9675 29.6248 12.1121C29.6295 12.2566 29.6023 12.4004 29.5451 12.5332C29.4879 12.6661 29.4022 12.7847 29.294 12.8806L20.4346 20.7556C20.2927 20.8816 20.1175 20.9639 19.9299 20.9926C19.7423 21.0213 19.5505 20.9952 19.3774 20.9174C19.2043 20.8396 19.0574 20.7134 18.9544 20.5541C18.8514 20.3948 18.7966 20.209 18.7966 20.0193V16.192C18.332 16.2708 17.7256 16.4086 17.0169 16.6449C15.2982 17.2197 12.9731 18.3754 10.6342 20.7162C10.4911 20.8599 10.3071 20.9558 10.1074 20.991C9.9077 21.0261 9.70202 20.9987 9.51847 20.9126C9.33493 20.8264 9.18247 20.6856 9.08194 20.5095C8.98141 20.3334 8.93771 20.1306 8.95682 19.9287C9.23835 16.8358 10.14 14.5796 11.3666 12.9535C12.4193 11.5498 13.8499 10.475 15.4911 9.85464C16.5496 9.45345 17.6656 9.22479 18.7966 9.17739V5.25367C18.7963 5.06918 18.8477 4.8883 18.9452 4.73165C19.0427 4.57501 19.1822 4.44891 19.3479 4.36773ZM4.03101 11.1599C4.03101 9.85456 4.54956 8.60266 5.47259 7.67963C6.39562 6.7566 7.64752 6.23805 8.95288 6.23805H12.8904C13.1515 6.23805 13.4018 6.34176 13.5864 6.52636C13.771 6.71097 13.8748 6.96135 13.8748 7.22242C13.8748 7.48349 13.771 7.73387 13.5864 7.91848C13.4018 8.10309 13.1515 8.2068 12.8904 8.2068H8.95288C8.16966 8.2068 7.41852 8.51793 6.86471 9.07175C6.31089 9.62557 5.99976 10.3767 5.99976 11.1599V22.9724C5.99976 23.7556 6.31089 24.5068 6.86471 25.0606C7.41852 25.6144 8.16966 25.9255 8.95288 25.9255H20.7654C21.5486 25.9255 22.2997 25.6144 22.8536 25.0606C23.4074 24.5068 23.7185 23.7556 23.7185 22.9724V21.0037C23.7185 20.7426 23.8222 20.4922 24.0068 20.3076C24.1914 20.123 24.4418 20.0193 24.7029 20.0193C24.964 20.0193 25.2143 20.123 25.3989 20.3076C25.5835 20.4922 25.6873 20.7426 25.6873 21.0037V22.9724C25.6873 24.2778 25.1687 25.5297 24.2457 26.4527C23.3226 27.3757 22.0707 27.8943 20.7654 27.8943H8.95288C7.64752 27.8943 6.39562 27.3757 5.47259 26.4527C4.54956 25.5297 4.03101 24.2778 4.03101 22.9724V11.1599Z" fill="#626262"/>
</svg>
